# xmcd
#
# Track frame offsets:
#	150
#	13945
#	27882
#	44020
#	59425
#	78002
#	91779
#	105247
#	115675
#	132097
#
# Disc length: 1957 seconds
#
# Revision: 0
# Processed by: cddbd v1.5.1PL2 Copyright (c) Steve Scherf et al.
# Submitted via: EasyCDDAExtractor 8.2.0.1
#
DISCID=7007a30a
DTITLE=Dallas Moore - My Heroes Have Always Been Cowboys
DYEAR=1997
DGENRE=Southern Rock
TTITLE0=Faster and Faster
TTITLE1=Who Told You Know Who
TTITLE2=Glad to See Me Gone
TTITLE3=Wedding Ring
TTITLE4=Son of Carolina
TTITLE5=Rednecks, White Sox and Blue Ribbon Beer
TTITLE6=Whiskey Helps
TTITLE7=The Devil Himself
TTITLE8=Out the Door
TTITLE9=My Heroes Have Always Been Cowboys
EXTD=
EXTT0=
EXTT1=
EXTT2=
EXTT3=
EXTT4=
EXTT5=
EXTT6=
EXTT7=
EXTT8=
EXTT9=
PLAYORDER=
